<svg width="743" height="133" viewBox="0 0 743 133" fill="none" xmlns="http://www.w3.org/2000/svg">
<path fill-rule="evenodd" clip-rule="evenodd" d="M365.96 6.83795C386.999 0.000784397 399.229 19.4819 397.902 41.0958C396.424 65.1495 383.502 84.3305 365.923 99.961C383.772 124.646 405.62 112.713 421.28 93.046C413.728 74.3261 412.213 50.0935 425.937 33.4883C436.827 20.3059 461.629 21.444 468.304 38.3751C476.846 60.0318 461.764 82.7968 447.117 97.9122C448.144 99.1564 449.195 100.38 450.267 101.583C454.64 106.432 461.398 110.685 468.049 110.759C490.166 111.001 498.455 84.8054 501.673 66.9805C503.42 57.3118 503.623 47.4696 503.758 37.8428L524.713 37.7188C524.375 44.4484 524.082 51.1668 523.415 57.8731C519.83 93.9242 502.916 135.496 459.035 128.731C445.926 124.911 440.502 120.548 432.08 110.357C408.132 138.367 372.184 140.556 349.411 109.828C333.29 117.101 315.932 121.243 298.265 122.032C282.78 122.746 267.843 120.851 255.827 109.929C238.764 94.7631 239.108 63.8849 254.844 48.1797C271.059 31.9983 300.777 31.1372 316.891 47.8253C327.391 58.7004 327.58 71.6236 327.487 85.4063L263.641 85.544C265.101 89.2984 266.369 92.8828 269.23 95.7715C286.02 112.726 322.867 100.961 341.725 93.5118C334.024 64.8812 332.944 19.4744 365.96 6.83795ZM379.466 35.2715C379.444 29.9266 376.999 21.688 371.314 24.4385C354.538 32.5583 354.244 63.5265 358.039 80.668C358.175 81.2824 358.241 81.2345 358.5 81.5001C358.759 81.7653 359.765 80.8401 361.279 79.2296C371.659 67.2531 379.541 51.4016 379.466 35.2715ZM438 79.501C447.117 69 460 46.5 447.117 43.5C434.234 40.5 434.584 69.1646 437.209 80.5665L438 79.501ZM308 71.1339C304.772 55.0096 295.381 50.803 279.623 52.6192C271 53.6133 266.606 59.9451 263.695 71.0626L293.891 71.1866L308 71.1339Z" fill="#101E30"/>
<path fill-rule="evenodd" clip-rule="evenodd" d="M0 0.951904C20.5385 1.08694 61.4363 -1.79077 77.7139 6.96655C86.1971 11.4902 92.4338 19.321 94.9463 28.6023C101.159 50.8218 90.0135 71.0995 67.6045 77.0486C78.3385 89.6299 91.4755 106.942 101.48 120.219L88.2822 120.288L74.9951 120.219L44.5166 79.3933L21.5166 79.2917L21.6143 120.324C14.7608 120.092 7.03548 120.292 0.115234 120.323L0 0.951904ZM67.9316 25.7185C57.9639 18.6106 34.4924 20.6792 21.5068 20.7595L21.542 60.3308C35.801 60.3999 59.8707 63.052 68.4414 54.8455C77.0119 46.6389 77.8992 32.8265 67.9316 25.7185Z" fill="#101E30"/>
<path fill-rule="evenodd" clip-rule="evenodd" d="M142.47 35.3321C166.745 31.0839 189.832 47.4287 193.897 71.7412C197.961 96.0532 181.446 119.022 157.11 122.904C133.031 126.746 110.363 110.44 106.342 86.3848C102.321 62.3303 118.452 39.5353 142.47 35.3321ZM174.309 73.2393C171.124 59.9221 157.758 51.6996 144.439 54.8653C131.091 58.0378 122.85 71.4426 126.042 84.7891C129.234 98.1353 142.647 106.358 155.986 103.145C169.295 99.9382 177.494 86.5571 174.309 73.2393Z" fill="#101E30"/>
<path fill-rule="evenodd" clip-rule="evenodd" d="M693.904 36.0978C728.307 32.3709 742.1 53.961 742.062 85.4161L676.984 85.5655C683.359 104.558 699.013 108.836 717.522 101.717C720.237 100.673 723.147 97.3905 726.207 95.9562C729.807 99.545 735.762 104.297 739.819 107.714C723.762 123.753 691.782 128.172 673.399 113.841C643.61 90.613 653.652 42.1722 693.904 36.0978ZM721.819 71.1847C718.624 56.0222 710.015 50.5574 694.595 52.5235C683.165 55.7516 680.539 60.1114 677.104 71.088L705.829 71.173L721.819 71.1847Z" fill="#101E30"/>
<path d="M603.815 36.0778C620.652 35.1281 629.937 36.4356 644.255 45.7544L635.57 59.5675C630.447 56.299 624.92 53.4888 618.86 52.5833C611.585 51.4963 597.92 50.8669 596.705 60.8001C598.902 69.65 616.94 70.4707 624.282 72.3964C634.392 75.0468 647.135 81.7722 647.277 93.9747C647.517 114.197 630.71 121.557 612.822 122.31C596.645 122.234 586.01 119.762 572.975 109.804C576.042 104.942 579.02 100.028 581.915 95.0639C587.832 99.4105 592.49 102.186 599.682 104.147C608.112 106.447 624.972 107.645 627.44 96.28C623.907 83.127 579.515 89.4571 576.897 65.9021C574.76 46.7251 586.82 39.0088 603.815 36.0778Z" fill="#101E30"/>
<path d="M208.869 0.845419L229.271 0.822937L229.328 120.266C222.701 120.086 215.472 120.223 208.796 120.216L208.869 0.845419Z" fill="#101E30"/>
<path d="M538.82 37.7297C545.69 37.6772 552.567 37.6734 559.445 37.7192C559.647 65.2142 559.64 92.7091 559.422 120.204L538.61 120.177C539.03 92.8239 538.092 65.0341 538.82 37.7297Z" fill="#101E30"/>
<path d="M546.762 0.208502C553.67 -1.05106 560.292 3.52583 561.552 10.4328C562.812 17.3397 558.245 23.9638 551.337 25.2301C544.43 26.4979 537.8 21.9203 536.54 15.0081C535.272 8.09595 539.855 1.46881 546.762 0.208502Z" fill="#101E30"/>
</svg>
